<svg width="1080" height="238" viewBox="0 0 1080 238" fill="none" xmlns="http://www.w3.org/2000/svg">
<g clip-path="url(#clip0)">
<path d="M225.009 187H260.165V128.548H317.48V187H352.565V41.5455H317.48V99.9261H260.165V41.5455H225.009V187ZM396.371 188.847C411.57 188.847 422.081 182.952 428.047 171.801H428.899V187H461.57V112.852C461.57 89.7699 441.044 76.4886 413.274 76.4886C383.942 76.4886 367.322 91.2614 364.553 111.148L396.584 112.284C398.075 105.324 403.828 101.062 412.99 101.062C421.513 101.062 426.911 105.182 426.911 112.497V112.852C426.911 119.528 419.666 120.949 401.058 122.582C378.97 124.429 360.504 132.597 360.504 156.744C360.504 178.335 375.49 188.847 396.371 188.847ZM407.095 166.119C399.07 166.119 393.388 162.284 393.388 155.04C393.388 148.009 398.928 143.747 408.8 142.256C415.263 141.332 423.217 139.912 427.124 137.852V148.222C427.124 158.875 418.175 166.119 407.095 166.119ZM474.089 187H567.768V160.011H519.189V159.301L566.064 99.642V77.9091H475.865V104.898H524.658V105.608L474.089 167.185V187ZM629.081 189.06C657.703 189.06 676.524 175.21 680.501 153.761L648.612 152.838C645.913 160.082 638.811 163.989 629.72 163.989C616.368 163.989 608.129 155.111 608.129 141.759V140.835H680.857V132.17C680.857 96.233 658.982 76.4886 628.016 76.4886C595.061 76.4886 573.896 99.0739 573.896 132.881C573.896 167.824 594.777 189.06 629.081 189.06ZM608.129 120.665C608.626 109.798 617.22 101.56 628.726 101.56C640.161 101.56 648.399 109.514 648.541 120.665H608.129ZM785.049 89.0597H820.631C817.08 60.0824 791.228 39.5568 757.563 39.5568C718.714 39.5568 688.032 66.9006 688.032 114.486C688.032 160.509 716.299 188.989 757.989 188.989C795.418 188.989 822.194 165.764 822.194 126.702V107.455H759.481V133.094H788.316C787.961 148.435 777.308 158.165 758.273 158.165C736.469 158.165 723.898 142.043 723.898 114.06C723.898 86.2898 737.18 70.3807 758.273 70.3807C772.336 70.3807 781.924 77.2699 785.049 89.0597ZM884.909 189.06C913.531 189.06 932.352 175.21 936.33 153.761L904.44 152.838C901.741 160.082 894.639 163.989 885.548 163.989C872.196 163.989 863.957 155.111 863.957 141.759V140.835H936.685V132.17C936.685 96.233 914.81 76.4886 883.844 76.4886C850.889 76.4886 829.724 99.0739 829.724 132.881C829.724 167.824 850.605 189.06 884.909 189.06ZM863.957 120.665C864.455 109.798 873.048 101.56 884.554 101.56C895.989 101.56 904.227 109.514 904.369 120.665H863.957ZM980.153 124.784C980.224 112.355 987.468 104.969 998.477 104.969C1009.49 104.969 1016.02 112.213 1015.95 124.287V187H1050.68V117.469C1050.75 92.8949 1035.76 76.4886 1012.82 76.4886C996.701 76.4886 984.485 84.6562 979.656 97.9375H978.448V77.9091H945.423V187H980.153V124.784Z" fill="black"/>
<path opacity="0.25" d="M130.75 18.5C115.611 18.5075 100.954 23.821 89.3265 33.5164C77.6994 43.2119 69.8383 56.676 67.1104 71.5673C77.6365 65.8114 89.7444 63.6212 101.62 65.325C113.495 67.0288 124.499 72.5348 132.982 81.0181C141.466 89.5013 146.972 100.505 148.675 112.381C150.379 124.256 148.189 136.364 142.433 146.89C158.328 143.985 172.562 135.24 182.336 122.373C192.11 109.506 196.718 93.4489 195.254 77.3571C193.789 61.2654 186.359 46.3034 174.423 35.4121C162.487 24.5209 146.909 18.4882 130.75 18.5V18.5Z" fill="#004346"/>
<path d="M56.7505 203.5C82.2936 203.5 103 182.793 103 157.25C103 131.707 82.2936 111 56.7505 111C31.2073 111 10.5005 131.707 10.5005 157.25C10.5005 182.793 31.2073 203.5 56.7505 203.5Z" fill="#004346"/>
<path opacity="0.5" d="M93.7484 64.7499C79.981 64.7511 66.7054 69.8693 56.5002 79.1103C46.2951 88.3514 39.8889 101.056 38.5259 114.755C47.0205 111.105 56.4146 110.086 65.4944 111.83C74.5743 113.573 82.9225 118 89.4602 124.538C95.998 131.076 100.425 139.424 102.169 148.504C103.913 157.584 102.893 166.978 99.2429 175.472C113.407 174.051 126.483 167.241 135.768 156.451C145.053 145.662 149.837 131.717 149.132 117.499C148.426 103.282 142.285 89.8788 131.977 80.0613C121.669 70.2438 107.983 64.7623 93.7484 64.7499V64.7499Z" fill="#004346"/>
</g>
<defs>
<clipPath id="clip0">
<rect width="1080" height="238" fill="white"/>
</clipPath>
</defs>
</svg>
