<svg width="222" height="222" viewBox="0 0 222 222" fill="none" xmlns="http://www.w3.org/2000/svg">
<path opacity="0.25" d="M138.75 18.5C123.611 18.5075 108.954 23.821 97.3265 33.5164C85.6994 43.2119 77.8383 56.676 75.1104 71.5673C85.6365 65.8114 97.7444 63.6212 109.62 65.325C121.495 67.0288 132.499 72.5348 140.982 81.0181C149.466 89.5013 154.972 100.505 156.675 112.381C158.379 124.256 156.189 136.364 150.433 146.89C166.328 143.985 180.562 135.24 190.336 122.373C200.11 109.506 204.718 93.4489 203.254 77.3571C201.789 61.2654 194.359 46.3034 182.423 35.4121C170.487 24.5209 154.909 18.4882 138.75 18.5V18.5Z" fill="white"/>
<path d="M64.7505 203.5C90.2936 203.5 111 182.793 111 157.25C111 131.707 90.2936 111 64.7505 111C39.2073 111 18.5005 131.707 18.5005 157.25C18.5005 182.793 39.2073 203.5 64.7505 203.5Z" fill="white"/>
<path opacity="0.5" d="M101.748 64.75C87.981 64.7512 74.7054 69.8694 64.5002 79.1104C54.2951 88.3515 47.8889 101.056 46.5259 114.756C55.0205 111.105 64.4146 110.086 73.4944 111.83C82.5743 113.574 90.9225 118 97.4602 124.538C103.998 131.076 108.425 139.424 110.169 148.504C111.913 157.584 110.893 166.978 107.243 175.472C121.407 174.051 134.483 167.241 143.768 156.451C153.053 145.662 157.837 131.717 157.132 117.499C156.426 103.282 150.285 89.879 139.977 80.0614C129.669 70.2439 115.983 64.7624 101.748 64.75V64.75Z" fill="white"/>
</svg>
